<?xml version="1.0" standalone="no"?>
<!DOCTYPE svg PUBLIC "-//W3C//DTD SVG 20010904//EN"
 "http://www.w3.org/TR/2001/REC-SVG-20010904/DTD/svg10.dtd">
<svg version="1.0" xmlns="http://www.w3.org/2000/svg"
 width="480.000000pt" height="480.000000pt" viewBox="0 0 480.000000 480.000000"
 preserveAspectRatio="xMidYMid meet">
<metadata>
Created by potrace 1.11, written by Peter Selinger 2001-2013
</metadata>
<g transform="translate(0.000000,480.000000) scale(0.100000,-0.100000)"
fill="#000000" stroke="none">
<path d="M2336 4753 c-37 -51 -120 -207 -116 -219 1 -4 -2 -10 -7 -13 -6 -3
-42 -82 -82 -176 -40 -93 -76 -179 -81 -190 -5 -11 -19 -45 -31 -75 -12 -30
-28 -70 -36 -89 -8 -18 -16 -39 -17 -45 -2 -6 -8 -22 -14 -36 -27 -59 -232
-606 -232 -618 0 -6 -6 -23 -14 -39 -8 -15 -24 -56 -36 -89 -20 -57 -24 -62
-48 -58 -22 3 -471 15 -522 14 -27 0 -134 0 -185 0 -176 1 -608 -13 -740 -25
-168 -15 -171 -16 -148 -63 37 -77 440 -472 712 -698 19 -16 44 -38 56 -49 12
-11 34 -31 50 -45 17 -14 77 -66 135 -115 57 -50 115 -99 129 -110 13 -11 40
-35 60 -52 20 -18 39 -33 44 -33 10 0 -1 -44 -23 -95 -10 -22 -23 -56 -30 -75
-7 -19 -16 -44 -21 -55 -11 -25 -60 -157 -63 -170 -2 -5 -6 -17 -9 -25 -11
-27 -58 -155 -62 -170 -2 -8 -37 -112 -78 -230 -40 -118 -73 -217 -74 -220 0
-3 -12 -43 -27 -90 -15 -47 -30 -96 -32 -110 -3 -14 -9 -38 -14 -55 -6 -16
-10 -33 -11 -37 0 -4 -5 -22 -11 -40 -5 -18 -11 -42 -14 -53 -2 -11 -11 -51
-20 -90 -32 -139 -42 -296 -22 -335 24 -46 110 -36 248 28 30 14 57 26 60 27
13 3 244 127 271 146 15 10 37 23 50 29 13 6 36 18 51 28 15 9 64 39 110 66
82 49 134 82 318 201 52 34 110 70 128 81 17 10 32 22 32 26 0 4 5 8 11 8 12
0 133 80 137 92 2 4 8 8 13 8 6 0 66 39 135 86 l126 86 46 -33 c26 -18 49 -35
52 -38 3 -4 28 -21 55 -40 28 -19 104 -73 170 -119 355 -251 741 -500 965
-623 167 -91 262 -130 332 -137 54 -4 58 -3 67 19 15 41 -2 159 -51 339 -11
41 -21 80 -22 85 -4 17 -57 189 -63 205 -3 8 -8 24 -10 34 -2 11 -8 25 -14 33
-6 7 -9 13 -5 13 3 0 -3 21 -13 48 -10 26 -19 50 -20 54 -1 4 -3 13 -6 20 -2
7 -15 47 -29 88 -35 106 -100 291 -134 385 -16 44 -55 150 -86 235 -31 85 -59
162 -63 170 -3 8 -7 20 -9 25 -10 32 -31 86 -37 91 -13 13 -7 21 55 70 35 27
72 56 83 65 11 10 88 72 170 139 214 174 237 193 255 210 9 8 45 40 81 70 35
30 75 65 89 77 14 12 36 32 50 43 89 75 283 264 386 376 58 62 110 149 96 158
-7 4 -231 12 -602 21 -146 4 -444 12 -740 21 -102 3 -213 6 -247 6 -57 1 -63
4 -72 27 -16 41 -102 284 -106 301 -10 35 -45 132 -52 143 -4 6 -8 17 -9 22
-2 12 -100 281 -113 310 -5 11 -24 58 -41 105 -18 47 -38 99 -45 115 -7 17
-34 82 -60 145 -26 63 -73 170 -106 238 -32 68 -59 125 -59 128 0 3 -22 38
-49 78 -70 104 -93 110 -145 39z"/>
</g>
</svg>
